<mxfile host="65bd71144e">
    <diagram id="rSLtl7qMbaV6QNcCyG5m" name="Page-1">
        <mxGraphModel dx="772" dy="428" grid="1" gridSize="10" guides="1" tooltips="1" connect="1" arrows="1" fold="1" page="1" pageScale="1" pageWidth="850" pageHeight="1100" math="0" shadow="0">
            <root>
                <mxCell id="0"/>
                <mxCell id="1" parent="0"/>
                <mxCell id="2" value="&lt;font style=&quot;font-size: 20px;&quot;&gt;Quadratic Sequence, In Js&lt;/font&gt;" style="text;strokeColor=none;align=center;fillColor=none;html=1;verticalAlign=middle;whiteSpace=wrap;rounded=0;" parent="1" vertex="1">
                    <mxGeometry x="230" y="20" width="320" height="30" as="geometry"/>
                </mxCell>
                <mxCell id="4" value="Enter Values please!" style="text;strokeColor=none;align=center;fillColor=none;html=1;verticalAlign=middle;whiteSpace=wrap;rounded=0;fontSize=16;" parent="1" vertex="1">
                    <mxGeometry x="10" y="70" width="180" height="30" as="geometry"/>
                </mxCell>
                <mxCell id="5" value="&lt;p style=&quot;padding: 0px; font-weight: 400; line-height: 24px; font-size: 14px; letter-spacing: normal; margin: 0px 0px 16px; color: rgba(0, 0, 0, 0.87); font-family: Helvetica, Arial, sans-serif; font-style: normal; font-variant-ligatures: normal; font-variant-caps: normal; orphans: 2; text-align: start; text-indent: 0px; text-transform: none; widows: 2; word-spacing: 0px; -webkit-text-stroke-width: 0px; white-space: normal; text-decoration-thickness: initial; text-decoration-style: initial; text-decoration-color: initial;&quot;&gt;&lt;span&gt;Enter value for a (coefficient of nÂ²):&lt;/span&gt;&lt;/p&gt;" style="text;whiteSpace=wrap;html=1;" parent="1" vertex="1">
                    <mxGeometry x="30" y="101.5" width="330" height="110" as="geometry"/>
                </mxCell>
                <mxCell id="6" value="a (e.g. 1)" style="rounded=1;whiteSpace=wrap;html=1;" parent="1" vertex="1">
                    <mxGeometry x="30" y="141.5" width="230" height="30" as="geometry"/>
                </mxCell>
                <mxCell id="7" value="&lt;span style=&quot;color: rgb(63, 63, 63); font-family: Helvetica, Arial, sans-serif; font-size: 14px; font-style: normal; font-variant-ligatures: normal; font-variant-caps: normal; font-weight: 400; letter-spacing: normal; orphans: 2; text-align: start; text-indent: 0px; text-transform: none; widows: 2; word-spacing: 0px; -webkit-text-stroke-width: 0px; white-space: normal; background-color: rgb(251, 251, 251); text-decoration-thickness: initial; text-decoration-style: initial; text-decoration-color: initial; float: none; display: inline !important;&quot;&gt;Enter value for b (coefficient of n):&lt;/span&gt;" style="text;whiteSpace=wrap;html=1;" parent="1" vertex="1">
                    <mxGeometry x="30" y="190" width="250" height="40" as="geometry"/>
                </mxCell>
                <mxCell id="10" value="a (e.g. 2)" style="rounded=1;whiteSpace=wrap;html=1;" parent="1" vertex="1">
                    <mxGeometry x="30" y="240" width="230" height="30" as="geometry"/>
                </mxCell>
                <mxCell id="11" value="a (e.g. 1)" style="rounded=1;whiteSpace=wrap;html=1;" parent="1" vertex="1">
                    <mxGeometry x="30" y="320" width="230" height="30" as="geometry"/>
                </mxCell>
                <mxCell id="12" value="&lt;span style=&quot;color: rgb(63, 63, 63); font-family: Helvetica, Arial, sans-serif; font-size: 14px; font-style: normal; font-variant-ligatures: normal; font-variant-caps: normal; font-weight: 400; letter-spacing: normal; orphans: 2; text-align: start; text-indent: 0px; text-transform: none; widows: 2; word-spacing: 0px; -webkit-text-stroke-width: 0px; white-space: normal; background-color: rgb(251, 251, 251); text-decoration-thickness: initial; text-decoration-style: initial; text-decoration-color: initial; float: none; display: inline !important;&quot;&gt;Enter value for c (constant):&lt;/span&gt;" style="text;whiteSpace=wrap;html=1;" parent="1" vertex="1">
                    <mxGeometry x="30" y="280" width="250" height="40" as="geometry"/>
                </mxCell>
                <mxCell id="13" value="&lt;font face=&quot;Helvetica, Arial, sans-serif&quot;&gt;&lt;span style=&quot;font-size: 14px;&quot;&gt;How many terms?&lt;/span&gt;&lt;/font&gt;" style="text;whiteSpace=wrap;html=1;" parent="1" vertex="1">
                    <mxGeometry x="30" y="370" width="250" height="40" as="geometry"/>
                </mxCell>
                <mxCell id="14" value="a (e.g. 5)" style="rounded=1;whiteSpace=wrap;html=1;" parent="1" vertex="1">
                    <mxGeometry x="30" y="410" width="230" height="30" as="geometry"/>
                </mxCell>
                <mxCell id="15" value="&lt;font style=&quot;font-size: 18px;&quot;&gt;CALCULATE&lt;/font&gt;" style="rounded=1;whiteSpace=wrap;html=1;" parent="1" vertex="1">
                    <mxGeometry x="30" y="470" width="120" height="50" as="geometry"/>
                </mxCell>
                <mxCell id="16" value="" style="shape=image;imageAspect=0;aspect=fixed;verticalLabelPosition=bottom;verticalAlign=top;image=data:image/png,/9j/4AAQSkZJRgABAQAAAQABAAD/2wBDAAYEBQYFBAYGBQYHBwYIChAKCgkJChQODwwQFxQYGBcUFhYaHSUfGhsjHBYWICwgIyYnKSopGR8tMC0oMCUoKSj/2wBDAQcHBwoIChMKChMoGhYaKCgoKCgoKCgoKCgoKCgoKCgoKCgoKCgoKCgoKCgoKCgoKCgoKCgoKCgoKCgoKCgoKCj/wgARCAD/AuADASIAAhEBAxEB/8QAHAABAAIDAQEBAAAAAAAAAAAAAAYHAwQFAgEI/8QAGgEBAAMBAQEAAAAAAAAAAAAAAAIDBAUBBv/aAAwDAQACEAMQAAABtQAAAAAAAAAAAAAAAAAAAAAAAAAAAAAAAAAAAAAAAAAAAAAAAAAAAAAAAAAAAAAAAAAAAAAAAAAAAAAAAAAAAAAAAAAAAAAA8HCqvDZpwbLx5AAABhzRQ78a5nRJH0IFPQAADFlr7rkq53AqEvrqfnu7TrgAA5EL0OQXRBZX6Kz60+povN8+gACs7MrA5NuUHdR24/t/nUt2S01LC1gAAKxs384Eol/CnxveuRCi1AAAAAAAAAAAAOX1B+bph1oyYLqpK4jsgOREixAI7IsZWcwru4isbQrCzwfD6qW2gCGa0kqsuas7SqMru8YXvFqgMdfFig1Pz73ZiSjFV1yFMxn9J0+bVsAKkLbae4OL2o8R6EZMhb3P6fJKs949ou7159AqYtlxO2IjLoKdesc2oWvV9l1YXu4/YBxjsozJgV4WGpWxiSKs5hcxEyWKUsckgAAAAAPPoAIToyrrnsA5fs+orSwbtW0KMTR3hSd2Y8gAx8GN6ehYvLh1iwqicr9KcgEJ1fs5MwDVg1+yw0ckddAQqA+UVe3HOpkYXublw7o7OpKtqt7Brz5xnxY8gAKTuzSPezFOJq6M16Vby47Pz0y85q7Q+fQVxY8eObM/n0Yso8ewefQA8ffQAAAAAAPMCt1T8VZQAEDnkO09De5/b6fvuUg1WecirMAPhE+hGJ3t6/N6+Rk5vO3uVH79U4GbAABAZP0ILu7G9MfTLz4ZMeRG9G2ejHygBhe6sV0Z3u6/v3nYuTGujvV7r6dkOf0MnMDyIGrFZDFNnWmPnfZeaEawAAAAAAAAAAAAAAERlyy+NSWCbWnfMWps4+X6YI7O3qxXzPdPQ9jFyEWlKd0NmUZj+vpWMhuKrPNIJrTC3Ri7hj5YRrQibrdEYk0Z4WjdYiu/UY2FigPz335NPPThUGbno9IU7a7lu9GtXRlfyB/fIyGKSCS+y0ekY+WHkWDOe1zIZJHNnVkGSv8Aw8sLhxnrnEsL17qzBRjAAAAAAAAAAAAAAAAAcfsYpWQ3Vm23p6ED72rxrtVgonLMXICugB8+jR97cLv2TRXvSnbMBl5wAB8H359r67VYKtrIe/RTkAAOR15TEKlbMvUX6Ep9kU5AADg96VghcrJp5jUau1WYjckoxBCoAAAAAAAAAAAAAAAADHDZVyNPQi8xj84t0RHh2Hw/ZbHdq2zqs2QZecNX33Uimfi9L6Gy8ebNzuDqQHuxbodyxt+PyDDxgroam3wZ3cnDuaHQ7cji852cvNqyUSmGX7JqOfxAEakvFt1QTtZpHu6+7BZ/xcnM1se5z7NErGPkgIpK9K3RWcj9y/Z1sld2JFM+KVVdZ/F9c+W1faHsgycwAAAAAAAAAAAAAAAAAADHwJGndwe8eRCNYDx7h11cxVpNLquvq7TJqDzwBracI25bA3K0nB0zl5NHUEZAPHvkThzdPT2+vz5r94Xd5HQGpGW24/Yl4EJAcyKd10sUcsHmc6PsnHP2Ob0ns+J2z30I1gAAAAAAAAAAAAAAAAAAOP2MNkOT3K0sbTRlGLUAinZg3Qx9hLM8JYYBYsV98lSFzPPd9MVNnusd+R9XB1/uZy96vLD52mjaz1vPzZGXQ5HqFbsm1PfmSmzHkM9zHkFa2Tw431MNgsWXl7hwJx+crn2H0MnoczcAAAAAAAAAAAAAAAAAAAAAAABzINZmPZm4vdifItrsKNcLu++R+wcv3NeGa8CPR2w2zNXnyxFkOT1jDqCMgOdDrCas9d+bGX1wKcZWa4M9wADj9hONdfLGbslc9KaIy8+jBrAAAAAAAAAAAAAAAAAAAAAAAAAY9aG6qJ1lriYyjvx73wLqrB98vqc/YEZDjzj86tYbnTw2DAZdDo+zzb5nT52wITGN5kxx6Ib8lqaOhq1WYJdWlk2w9DBrAAcvlw7pYbZjOPYrsi1j1/P7K8o5u4AAAAAAAAAAAAAAAAAAAAAAAADS5vfW1wabe0o69Y2prXVxmY6u1TYFFzT3HvnB6W4shpVna+HTTAZ1uK5Bl0MOY8j3EnjXRrafV80W1JKZdqdDH73jm7QjIDjxKxWvPjj8kx02VRK5byt+TRk2HNg1hVYAAAAAAAAAAAAAAAAAAAAAAAAAAAAAAAAAAAAAAAAAAAAAAAAAAAAAAAAAAAAAAAAAAAAAAAAAAAAAAAAAAAAAAAAAAAAAAAAAAAAAAAAAAAB//8QALhAAAgMAAQMEAgEDBAMBAAAAAwQBAgUABhAgERITFBVQMBYhQCIxNIAkJTVg/9oACAEBAAEFAv8ArtsaYs0H2NbZJ0/naSb/APAYlAjVZC2Le17ZlkGqOq+ZSUFXsy6srxbQUZt56Oivnj/qwXvXNRgGl1LVZmeq2OZfUvzs+el1PAjB6paqRY1GAcd2Ek5nqpT1ztVXQ/gb6qrQhOqW7c6acec4ywJYS5hsC/yb2ilKz+Z1ltfKHWl6kr/B1R/8Xon/AIHVtItjdG39czz6zF7s/pgsmxuqHDpoIBA2XXSCjbINdjN8trOad3+p1lUyY4pBmEzkynhRevL1hvqrzOgtiE1dQmlfFHQWZqwac8ftodhjN+p0YpX18p5VgUai/Uqw7IaSr0bqsN5nRLE/5WpW1s1X/Wmj03LKH/n9PtJM0bV8+oae/H6ILHx74vmx+iCx8fn1bHrjdG29cowqHHs4KSy1AFILpzTh9XyZYEsJhyGdXO0AaAtqjREPpb3FBtEdycbQjQ8tYqgVL4Oe+A6z+CfNa+6jufVEjg5P5Mxxl6f1qzFq+X9PZ/2DYmeWmxklyL4zn5DN6WmQ7n+Vr9N/JeG9rN409obPMhP6Of21inDn9LarLpO5KQQefkOJ7toi1cvDaS2e0/2hbqFv8n32F5azelnTLO861Pf5xbCaWT0WsSLdiXgY8LZZ0NLtuq6LGnkdPhGk3nO4zq1r3Xt6+3BQcpud+ondFLUTN9hTtuZ/5FEf5rOrCGvqEz1apKdRKEdzEdhzMCqm9uO1iK17dZVKNjFNdjL7dTLPmim3rq8f1ntQPTydks3T+TK6hyW5eQ7bDko5/T+hfRS7b26ZFr+pdHmA2w4lsN7I9Bfc1F2I51C+wgv/AFJoxzC0L6Sn8kViPDqp6FkOjVJEp/C8f6qmKAurs+EUpFomJ4/nrP1D09nitWsVr26sb+vmdHK/Ej/FM+kOEvu7Y6QMfZh9cErnGxTvNKzPh1Ke7+uqGF1uVeXsXnp68isR2OuFjkRER26wdHVXpMFg5Paw6Wt7K95iJ7+yvK1isf4GhmLPzStaU7uOiVqXSavZUvzL9/8AflKVHXuxrBFYrbT9840pOxPrHhs4ZdDRCOoRdmTjXGbRZPbId+xTySzVUicNf4xfM89KuPy0Ey3QFqcXn9UH2dDUsEvtfe47nWVBltwyDzdyFHGoj0j9BfNvDJ1ws52AefX+BxNVUeOX5lm84TJB0gdG3BK8pat6eTCjLOinCopNjz8tY9K/kzBcrMWr5N3osrgxezDK42KBFUIts5gUz2qsg8vri+baat8oRT9VVQS36G/rNc5m6znnvMf2ygfAnUdKzxJ0onvGZ9IdNbQbWDUAe2mpDQMNr2X8jkqEWRWTaXbTT+0HLele3iUlRDZMXSaUXqsDsYdTDOIuY0k1RoXi+3VUOQvZhn9Htp+6Mh35qeL7dVRZa1m2O+wj8sZelHp3vetK6D9mrZiMK08NhKaEz9OhI8CkoKjrRNA6CsKg76WdDPFnWEbA0Vzci1Z5a9a8Z1ACiZZ1DJKUUH4GFQw2Fz5xldYRIpet45M+nG9MIIAE2mwIdRD/AEmjn2BdPYj0GyEvPWOXMOkN646QomZ4tKxSvhoZcG5RlxDlduPQm1aeQNzQsiiNWPJzJGWfg0FOfkXq8/Kt8/IPX5VJ1uySY1K+JgDPU2LSeTkM15GOxbgMYVeUpUdfKYiYYyAk5fJZpz6ujHIzXScXxqV5SlaV/TM5y5+Exbc/EtcpjGni2WAM+cxExZNe00WDT/JvetKxPrH8fuj9QUlRDWYGyPjur8Bba7FuZjbR2POeG2p907DHENWxD+Uz6RExMcbOd1xVi6jkTFo8rPihztZw4dTqD/jZE+uf5G0ajd7fbNGxuHIIRUDBXwzXKv8ApSXqOmjpCMBF+VB5jkt03x1gar5lhoaI2Z8W2xDFlvQDi5qnFVYFbXKAUsEpbXC4A1/A7Agc1HwnWztASyqD9W7mVaWalFiBYjVZB4m1w0kjPuenaJwVveLer7W9SPmzMAnuW8X9X4iEKX7CLTt2OM/6NvmgyU5sZsMD/StgqyH8UGq+YoYbVaxWGZHUNNJP2OSGrA5mR92h2KvTGt8WevB2gioEfGcmTMEW+N5PMGuXwezqtGYyBVXyUqHgABAjlqxaosi9WvGMxWL6mdPvSB7F+aaX2x56UgXUzLru+P1QfNoJMsuCp8Y+ameQzFPWKNvhAduwrO/qSUqSl8daeAylxW8orWJ72XFY3iY4gQuyFj+G9opU+yGvA7fqT/f+J50adS7RbcFpNALS9b17tJBZ4rmgXv8AsnNj4yy4/auY39tfy0zEXVEsVsjAiZjiDdXBc+8H7fjqAuwoqNQBd8Fa0x2fsK9mjfAvmu/cH46Gd9s6Z0pY0EquDxlTrfsNYpAp47FmFfJ8S6Vcm5m65yLKzpqzcSJ7oOeFpitS+ujo2FS4xCoGnNelltABamF4aTkKBx1bMHvWt6jpUdexKQSi17ZuhExMeGs79YWCrPr+xMOpRBITLdESpR+DzdFBiGfUZAKgBdttOS0y9OsUiYtHCkoKuloS1OUl9UXd5aGgJtFzjgMM9Ozzo1KLhLptDpUdPHVS+0PN0LKyMlSV7aGjRaEEyPGrEVj9k8nRsdbNZZldQBuRMTFrRWHNYY4VUPoFCKgR+DuWI8/QeWn/ANpymY2eySAlfJxMTVS5jS9/vaAuS7oG4rklLYQ6Cp5vICb5bPdVt9zRpz36TPE8b+9YisftCUqSrGKO3Jy3B8jKbJKmOIfI/t/+XJeo6DJUtOGLQNPzQPfS0Xr46D0J8HeCDMSoRm2D2Iob51/L319/G2hqjBtUsX+Bl4K5uaml9afyLtLDv8g/2jTI1aaOmNldDS+ovmt/cDqolbLrKhUFmVmqHhoPUT4+9LnF9YwhPLy4rpiqqDMpI0fAl6jpbZWjn2vbo52hDl9HOI0zrjGJiselfJjZEOzjP2Wc3Su0x+MrL20T53RV+MX7RpYbVL5a3w4yc/JWtaQwWAANc2gxjvEsTwYWCxx3NGxVdYYBuFkCvow6X8k6HiZbGW7mHUw65Csccyb/AGAAGCuk1Ki/zzZq25HsRPLK3j+NV+Rpaaa1KVpzabuuIUlXvTbp7cp4rZf29oi0AWEvyq4qm87Vi1QBGCv8NqxavxD9kIrRb+G9KX5Na2rbNUtIRUDT/sn/AP/EADQRAAIBAwIDCAECBAcAAAAAAAECAwAEERIhEDFBBRMUICIyQFEjFaEzYYGxNEJSYHBxkf/aAAgBAwEBPwH/AJAjjaQ6UGTVzYyWyhn6+WHs2aTdvSP51d2ptmxzB6+W2spLjcbD7qeFoHKP5AMnArwMMG9y/wDQVd2nc4dDlT5YuzXZQ8hCirmzRYxNAcj4MFqZ0ZlO46eTs1pO80R9akuVVZIPcM7GoLZp1Yr08l3lLcLMcuf2FNM7qEY7Cltklt+8j9w5+QO11AxbZUH71NdSTgCQ8qaBLqHvIRhhzHEAk4FSDwduY2971rbToztVskV1D3PJx+9OjI2lufGyTSpuZuS8qMr7jOx+DbTtbyB1q4sxOO/ttwen1RRl2IqG2lmOEFSOllGYozlzzPCCdoHDrT20V5+S3OD9UOy7nONNLHDYepzqf6qWVpmLvz4Wty1s+taNvbXPqhbSfo1+kTfYodmaN53AFXd2rKIYdkH78IZnhbWlGW0ut5RpavBW3PvqFzb2v+HGW+zTu0jam58ASpyK8XDcjF0N/sV4CFvZMKFtaQ7ySav5Cru7NxsNlHIfDikkRvxnev1O6jOl/wC1ab+5XOcA1cQNA2hvJBHcXPpT+9P2XcIpY+W1tjcE74Aq7tGtiN8g+R4mjxqHOre2afOnpTW2LcT5648kkLxgFhzqC3afVp6DNW9gJEDu+M8qniMMhjPT4dm1tH65c5zXackGohV3PXNWtwWg7sx6wKv7VYtLpsG6cFGTg1BBaiF1DZHWi2Ce75V2dHAMlXycb1cCIN+E5HCBY2f8pwKU2fhiN9IP9aS8WCRjCvpPQ0b1LyJkn2+uNsYBkzg1cXNqYkfTnpjPKrCdYZ9Tcq1w9y8GrkcjjbPEjZlGau7yExL6QSR/5XZsqJIQ5wCK7OlMch0pqNdpQhWWQf5vixXEkXsbFSTPKcuc8ZJliGWqK5WQ6aDFeXGacodCjJqGfUdD7NRYLz4uSFJFGSbSZM8ulI4ddQonAyaRg41DjJ3pfGrSKiEkT6DuOCSNGdSHFSSvKdTnPxXBKkCraXUuk8xxuZB7FGWpbbZdR3FXKN/ETmKilWUZFcqc+JfQvtFYHOriLvEwOdQTiQYPPhPPj8ae6oYREuOKN4ZtDe08uDuqDLVEDO/ety6fKmt9Z1Lsa72dNmXNGSeTZVxUMAi/74vaoxzyNeDU+4k0qhBheMtukm5514V/9ZqKBIvb5GQOMNXhMexiKW0XOXOflzTrGOe9Q3KyYHWp5ZVyV2ApDlQeDMEGWpb1e8OeVXbSDddhSElQTxkvEXGN6aUsmqLeraRyWV+nknvFUeg700jSp+GrXVrZc5A+W0SNuRUMIiXAqeBpiBnaoUZFwxzwIB2NCJA2oCp7czMN9qiiZDu2eBGaa1jYYxRX04XaltpY/a3OlBA34yWyuNtqkUsuldqW2li/htUSsq4Y5P8Au7//xAAyEQACAQMDAgUDAwIHAAAAAAABAgMABBESITEQExQgIjJBM0BRBSNxFWFCUmBwobHR/9oACAECAQE/Af8AcBVLHAqW3aIZPlS1dtzsKmh7R8sUDS8VIhjbSfIN68Okf1WqaHR6l4PlS1JGpjgVLAoXXGcj7GOEyAkfHktS2rSvzTSgBo+ajiMgJHx5JvTGA/uNF2IwaEQeLUvI8mTNGc7AU8rSYDUY1mTVGNx15ph2ItJ5NajjFRKkydv/ABUylTg9YFwO6/ArWd/sYpDG2oVJB3P3IqII5pInf2imYW66F93SOQxtqFNEk/qj5/FeEl/FBUt923ancudR6RSmJsijFFLuhxXgpK8Jp+o2KmmBGhOOiOYzqWi8M3v2NdiL/PXdih+nuaZixyegOK70coxLz+a8Oh4eu1Cm7NmppjJt8fZozKfTXi5V2NYuZR/apIzGcHyRrLLstNZyKM+WGIyGpoTF5GUrzUcRkzijFiLueRkZcZqOIyZx8VHbhlBY4zUiaG0n7OAxL6n5q7aPOw3/ADUUhMenTmrmIJhl+eg3NRxw6GGc0TgnTVssYzht8VIEB9HSMKT6+KHY7R/FCcRsdA2rvrOhEm3WLtj6lSSwlA2M1byBJMnitSdto8/x1iZFOXGamnTQNh/5Vq4Vjq+atX0tsuaukAIYfP2qSMntNM7P7j1hgeY4Sp7J4V1HegSOOtvaiRe45wKuLXQO5HuppUZ/aOsahmAY4FCG2DiLTz81LGY2KGlBY4FSI0baW56w9hY9WnUfn+1TGGaPuL6WHx0VipyKZ2c5b7WJgrgtxV7BofWvtPWzhb6jHCf9094csEHpNWUi7xScNU8DwNpagM7Col8FGZH9x4rUcYqzmEMmW4q5tTCcj29LW21fuy7KKubgzPqrmuKkXxqdxPcOaIxUcTStpSp2W2j7Ccnn7q3uzGNDjK12LaTdHx/NCG2h3dtX8VcXTT7cD8dY76VBp5H96/qLD2KBTu0h1MesN5JCMDivGx89oZqe5kn93kSRozqU1/UNX1EBpr98aYxp/j7u3tXmI22q4s3hy3xVrBA+Axyx/wCKkXSxUdEjaRtK8036a3aGB6vmrBITswyxqUAOQvHQDNQ/p8j51DFJAFl0T7VeRRqqPGMZ8lt+nu5/cGBSRJBJi4q+C9tG04J+7SeRBhTVxcNO2o1a3K24Jx6quJEkfUgx0VipyKM8jLoJ2q1ult1OF9VTzpKPSmD0BxuKS+mQ5zmlf16n3p7yCXGtOKYgnI6w3jxnJ3qFwrhnGae8gn+slTOrvlBgf6u//8QAQxAAAgECAwUFBgMGBAQHAAAAAQIDABESITEEEyBBURAiMmFxFCMwQlKBUJGhM0BicoLRJJKxwTSAorJDU2Bjc5Ph/9oACAEBAAY/Av8Al2xN3pW8KdaO6x4Oid1RR35tBbPvXxfBaSVgqLmSa3mzuHTqKhVYcePMk0k8Xhb9PgYpXVF6sbdv+InjQ9Cc6wwbRG7dL5/AxbQ9idFGpr/hnw9cVJLH4HFxUkMUBcobXJtWWzxfrSxbVGqB8gy/AaPZIg+E2xtpQ30UbJzAyNJNEbo4uOwrLMC/0rmayimt9qtA/fGeBhY/AK7PBiAOrG1e7iiX9ambax7v5ThtRlncIg5mllhcOjaEfvRZsgBc1JNtL4NnXvMfpSlhhmRFGQFiBQZGDKeYPwZ/t/rU/wD8v+wpz9LKf1pl+mQ/Ajkv4H09ahxZlbrQOz5F2wl/ponbNs3PmwveoTsu1CbFnlyrZ5ZRZ2XPjF43MBwgMNAvOoINljwsBiY3uTWzRnUIKM0mzxtIdSRXdgiH9ArCAAu+tl0HwH26W84JskeHmaRWVI4lPdUcqgjjlWUKPEpyqf2W++w5Wr/EIxA1W9jTLs+xuJzozve1SbUXBbwBb6fAaeaLHHjLbsV/wIjH8Fq/w8gLfScjUyHVRjX1FbRs508Y/etpCeIxmp4kPvWKkL9QpZJWeCc/KwofQf8AI9Rzx+Fx8Dah/DetpiuL3DWral/hxflnW0w87hvgP5MtMOkh/wBqMcyB0OoNSbQsrxBfl1v5VJIiEpH4j0rAwCyxZEDS3GZJ3CIOtHaZ1LR474fLpWOBtNVOop12FsM3kbGvFtP/ANv/AO1h2cv7Tno1j51FtO1SYcJubvcny4ydvAMRNrEXuaE+xs0YfMFdPyoSI/cJ8S6H1qKe1sYzHnUk+0wRylRliXnTvJdIF1w9egpCj4k1/mXpQI0PG0pjY3zwYsqw+zIvmmVLtGzSsY8WTc1NJI/i8L+tGM9GX97M2wEI2pjOn2rA+9wj61xD86jgMd7G+FFqKA5sMz69s0myi8qjKpotqbHhGINa3AyN4WFjUeFG3Sv+05YaKnQ1vAwGzrfO/iHTtNs6EW0xqIy+EraxXgniXxFcvWvZBHiSRu91Xshg+QDH6mvZdliaSRl7xYWFzU20sLRkYR59rOxsqi5qRHVdxYkZeHtkDxyyLf3dhlaiNuiV5n1/hoTbFjaP5WAv9jUbTLhkKgsvQ0cOtb2eFkC4ixtlwYklKwn9mORqGYi2NA1u0xqbSA4lPnW6jE6p0w4hS+0bzD1kyA+1RwR5hOfWnjhzcHEB1r2ZYkyPzqb0JdrxCIasRbLoKAGg7YJhKQhFgoOhrZ5JTdyuZ7YX2Fmwpqqmxv1rDMmK3/mR17OYVwk6IpuaSOT9o3eYdKeZV+beLfneo52TAW5dsk6qGZdAaMkqqrq2E4dO32eCFSbXxPVt3D/kP963m1pha9gbWvUi7OJBD8mFL5UibUhe5thZLH7dkbbNGGLGxYi9qvgit/IaMkkeBg2HLQ/FyHAYQfezZD051JtDDOU2X0HwpZsOLAt7UdrlHcVsbHl5DhLBQGOptWRoDaY8VtDoRWLdF/52vQCgADkO0xA9+bu/bnTTsM5Tl6D4dzQWK+7vhXyXrSovhUWHbZ3u3Rc6xRNccFyoP24V2WIH3Z3YHU1FCuiKB2bsSjF25DsG/iSS2mIXqwFh2+yA3lYgkdBSlxbeMX+3aCyqSOZFeEfl2i407dBVlAA8v3FDtCElNLG1BUFlGQA4O8bv9IrEHwjoKSTqOHCihR0A4CqAyEdNK3cYIH0rRSY2XRquNOFJt8BDYAg6j0pY4xZFFgO3HIbD/WjubqozstFJT7xf143fZ4grN2O9r4Re1Hd4sPRchV9pb+layzX/ALhQkjN1PwPaN0m++u2dGKFRcak1njK+eQpZMWLPvW5UAT7xfF8BZ51JYeeRqw0/AWfaGG4vcvesOy2sua260+zt/MPgvMVxHkpOVE7tUsbd0a1jN1bnbnSougypd7fPpQZDdTxsHDYb+LkBR2eErjHi6mrwuAvnyoDWmTaFtHfS2lAqbg8cjeHpbrUj3OG2fmawyi4oRxiyiotySoJzNA3748Q497gXedaEELEdbUse0d82s1Nuh4vwE2yNGLaGNibG/I/AEC66tShvE3eNEqqgnUgdjR7U5sTY35HiudKWOHwDJf70sa6Dty/aL4aOzvz8Prxs76CjLyF2P37cv2i6VuJ8kvz+XiLyGyigkY7vIf70I1+569pSQXU0HQ93kevlWJNeY6cV/nPhFHaJcwDf1P4J7RGMx4qEUh94unnxXObnwijtE+a3v6ng30Q741HWhDtB/lY8BZyABzNbnZ74D/1VibOVtfLh9ph01a3LzoJOcMnXkeEtIwC0IoQcF8h1oIPF8x4N5HlL/rW6lUlR8p5V48J6NWRBrvMB967p3jdBX8I/JasubHVuvCUkF1NbyInByb+9Wm9236VdGB9OzOiFO8foKxyHu8z09KCILKPwXfbNfDrYfLWHaRn9QruSKfvWtXd1Hqats/fbryrfbSTg69aCoLKOXCZILLJzHI1hcHD0bSu9D+TV7uID1NXa+HqchVx3pPq48UJ3bdOVdzHb+HMVn+qVov8Alru3+yVebEB1eu7m3NjxWlQMK9zIV8jnXdZPzrvOg+9Xlcv5aCsKKFHQcdjmKvGTGf0r3bK3obVb3n+eu/l/M1XnfH5DIUFQAAch+D3K4W6rXu5Qf5hXiT/NXfkQemdXPvG/i+BmL1nCn5V3YkH2/ebuQo6mrj4mo/CC7myiscRy07GjSO5Xma7oQfarSr7u2uG1vg+6iFurVon5UI5wO9oRx3OQq4zHYYYSQt7AXoK8l0vZs7igRmDx+z54tL+faUlb3eK1vKo/5qi+/GIMBOdie3Bj7mPDhpEjuMeprfuyjyvnTCQk4TkT+DFnNlHOnijDG/OmVUDXN9acsmHDSOEGItm1BUVcA8qwnuSdOvFIN6oextnUm/diDoNaEkfhNFhElz5VZnjU9L1vMQwYxnWCOQFuH3rhaMcTEm/SsD4i1+VMoQqRnTPAreTLnTyMmFVzzrcuwDA92/PiIQM9e0BfmxWrKJKViLXF7UjdVrGudrNTR81PE0cK3YZEmt+3dc94G1Rq4ZkOt17P6x2ES5YTkvSlgtgf/u/BjG1xTKM5CPEawzQjd88QqygAeVMZgCg1uL1hw4V6YaD7Gxtr6GlLa2z4HRGwsRrTGR+/yC0I3Bw87UEjFlHY8glsGzzFbhm+YC9CTGzMNOESFyuVqcx4zIBlUhnjbI5cqtEgXsKnQ0CXG6Bv58RbBe/ImlfZY8tCoqPeIu8tnl2LhNnXSnjlbFi5UJFk92Pz4t7u13nWuW75HpSoPlFuwSwWvzoBjc2zrdSIT1yoHY9MrW6/hRVxdTWWNfQ0G7zkfUeMkAAngErIDIOfFeVwvrR3LhrfBLObKOde6VpD+QoCWIBeoOnwxjzY6KKtFGq/rS+0XKHOxHKgyEFTz4LyL3vqFYxiZuWLl+JskCA2yxGjLdwg5hcqufGuTcZeIXb/AEoPtMmANzc5n0pWS5XkevlRZVK2NiOz2e5x/pxFI/Fe/rSxbWuKcnP6VqJ41AA7ptWYzTu+va8tr4RpTErhZTmOJJN5hAFiKMMCBXH8OtdHGhqTfZKdBf8AEGeLI31q8jXdTY8bzoBvm8IOdTpOS8JFs+tX/wDC5m+tOoOEkWvRhmPcvY/34SWyAo7v5j+QrBIoYedYY1Cr5dizLz7w9aWRNG4f/cPhFe0S5qDfPmawuAR0NYUUKPLtZG0ItRWTw6H061cacOBD71v0r2l/Rf7/AIk0b6MLUVfNefmKDxm6nhu2bHRetFnPd5nkKEcYso7d9GO+uo6ihDtJtbRquDcdmKRgo863Ozg4D+bVd/2ra+XAUOR1B6U0UynBzX/esUTBh2943fktF5PDzPTyoIgso4rp+1XTzrc7QDgH5rWKNgy+XaVSzS9OlGae+7vmfqoAZAfidmyYaNVvlP5NVmO7fo1XFXYgDzorB7x/0rezE4Obf2oJGLKOEsnu38tDXuSbfwNVvfVeY283NzV17z/UeK0gz5MNaxbO2LzU2NWcN/UlWXF/SlY9qNh05mgka4VHwLnuyfUKvCSfNDVjj+6Vb3tvTDWLaj/SKAUWA/FcMihl6GrwOU8jmK7jD7Nau+QPVr1imO8bpyrL/wBLlnICjmaDRsGXqOzHKwVathfD1oMpup04kuhYtSuNGF6aSQ2UVeKyp0tSS6Yhx4MQxdOzFIfQdawyR4FPO/wVjkJxH9OzdxAGTnflSu7Gx5EZGlcaML/iuKU/lRjRGGeprd7rFne96LlcJBtUZRxhGRBqJY/2h1JqEH6eEXUsx0FLdAuGkjCKwXKggOA+KodnGb+JjUKnW3CXc2Ua1kJD9qO0re2K9jTruypGetK4kAS1jflSRQrbCudAcZWNGe32re4beVbtowBa9xRnZsS3vhtSxx54e796RPpFvxULKNKYJH37ZG9Se0wd3+Ic6soAHlTyEXwi9XC4mtoOQr2efXkeEb5A1tKQJaPD0FKqKMudSSAXKimcAyPztWGT/rWo5HXCxGnAyOLq1Zhj6mh7Oo3R89KtGgX0rGFxG9q38gxHFitXch73mcqSUrhJ4i5iuTQCRdwkWAGVd1QPQUqxZM/zVHtGDK9wWGtd6Jr+RqQOowjO45fjBBFwaO5QLejKqASHn8AqwuDWGJAo+FZgCOhrBgXD0tV9yl/T4XfVW9RWEgFelX3I+1YYlCr5f8yn/8QALBABAAIBAwIEBwEBAAMAAAAAAQARITFBUWFxECCBkTBQobHB0fDhQGCA8f/aAAgBAQABPyH/ANHBHT/xo1wic9TwSi3lynqmI+Z7dbUc38ESCbEEMvbXU4h0syCFGx1ltlOjqtz4GXGVQH1giWZHwer+ERrOgBP2vgBNkJfbI4Q99i67VHXsN0s2M1174lvBOqor/F80PW/gWhkS5PQjFccFo6MpcC3gTA6nV349YXN8qH5l0qq1APgMDqNe7BC69DfyiuC1zfByTUdn/wBY8iSz2ycBErCK3BaH9uz/ADZuomlWy8Pwf4ejwQd4KQ8aPzG44e4PwM9jFwYWVqXoOPpUtfrJsrbrDNJdQ/X+4fQLZl07SngPdtfrr6+cL+sYg23gfkbSxpfs+83Sa7ufzN8Dj3DqG6B+JUuQQ0fySy638zmZ9D8YyZXipjwIHuWVPItpK2/eBeo83p1mqXYvuonAMoHVjeNEUoZDdTzqi2F30cA5aO0KBzOl9JcxBbifSW4XKOCyItKKPjZ/H/VpLmVviC7KobF2d8jUejDVgrazUmvLfoNh+/rN5EVw7nwKMLT6Tcs4Ky2UpPxGF1KvV+kVsAfavx8C4cr6zpd/oodi6HYwb3WaK2F5lQXqzF9LlRdBNLYh595rC+0fsAg5rp7JmqeE7pFMJW4G4OzKslvfGplZZnqi8CTUfzjgc9lBD1JaX70r20Br6Yhh2YDYYfrMFsCCqwFxN8kwtaQX41B0yZUcOwsfOpczkVXt/suzgZJ7Qxhpoba5VYuJHDWIVVr7n/z/AKzew6Bbq27TthD2r/UbENBZbyrLgUbTll8QE2Ni65faA0Q0lM1WPIWtoLoyy1epr/atoJNhSQA8sOaaI9vbxaoWDTmY+pXMNa+QV7xvRkgzQmRsrX9+Dss96K+kuQUXiGV3Y/DL++7s8bpQNwExXSjLLGd/G6mJlHbUywgy08DzLMU1oThnb+8BkmkDHF6XLKITpkOnv5DYcEaSKuzvGti3wsvxqMulp0Mx1DgD0dZgTvfvo/SLci1bnK+8Mmn6XtEgojVYvqTQEisHBgh0FB4tLA4EMr9Sakwzemr+njnQx6eOqdB1mv3KggICrJ63MPqPMO3tKgnPbDV90meLh2Yas6eNG4jQWtZi5ybhi78aOoVY3fAVGrVMGpT9AeahHU6MvK6hVEsndwH5isGqj50qB6TmGcqa3V94ZW6fUHxKmlh2PJh3VXG9+JUO/KL3v2+Fnfer3nr9vGz/AGnl0UEAtmij2YAzZn3BCtobIPaFkagKDxOinofU/HrMZn913v4YIlBlZlOOyNfufaBDQA6Hj7yhCUx73J38l2Vy+Uxt3EuX+4n1sE0RQLWiWXXg4fXTwQKSzrNBDseBgAd0aQ2IMAGniZpk2zzLmgg9Afbx0ErAUmS/FKIF0KaeCCUlkUKau0Lnewo/4dT8jQcPSGtLsAeR5XtNn/JYZfgcSiqxrXO/kQCJYztxVHkxQK2e6GFn+VlqzvjHZhEoosTfy6rOMpPygyCuIHir4Yb9BMf+aFocrFBebj5ksp0mpGVtaODg8M+LlG89zwo9ZdveT7sOKdnjhm3IPwAkMWoGNMfL6EsYJjTV2FGOExEMBz1+AK2wQoJpcAgAYA2+QiZWa4n7iEX6QSnDR6HJ8FHrPPGdkOgi+T9UsFBgmZL6QXDWFsTfzkWPCvoYi0GH3I+/7daoshUFW7yhPA3Bz1gpBWJv5xZRpwVlpNuB3dScjoO52m1oJEJSVfQ+8qVSrifOrb2nMtsDN9K7ETWaszcyZFZVv5CA3YNPEWxzrfU+AY9l/kRyFJRxf+VNJ+4C946Yi4itp+rzAiAMqy/pTucqaD7ry8+KCmC1+IiOhXbbcedQqO4USvqgV9fEsEMz56RnfgDufqCIJkfKeHWLFW0e2cptC55HPiM3WEeUt6Y5QM1HvrzMnTg5X9SxjLH5Itpjom5zDwtZO39+ZdV6h/yWwDkf6ryNnB4tn7mJtMfZMM6eOsxZIWO5WNf8TEUWXDg8qYWzRuQbYsX/AJGCJY2eQQi3Z7wkblmTBZ5HyXVJ68d89RpnsYUUX6ENvtjBrC60iY9tfeBTc7S68xa+UT2QelbB9oLd13SnD6r8AFoDlgQtlcerErC/RHEVbjQfJEsp0lV8ttVdOkoVA29e5CLnuk95Rj9CIC6/A/cpQvKtek6Q+hKBt5W7Cyn8jGsU279DNY7/AI2h1Oc3fSD/AGZZr8DK/HHmSymKDJ6v6livX/oTQ5vgM0ZykJTkOnpKab+ofN3pBqRheiNPeLZZ0ZGsd3MZFfCB0R0CvO6ETUY08JmfZF79UU0L2f6iOdObY0IUzQYsHydRsXSh16cUSnBR3fqOY/uULGjvo9oY089aIcMsDWdbjofiUcHxURTuUQAQR0T4mWs3F/KKtxtZeAhsJSPgNralKLi3tlplksX4AKhXaARUbmvpEuDgNMVCqnzgygarCSiaJ4CFCBQa3ZXisL+lRywFib+cUy5MGOjxt8LoRaMv0v1Z2lT6vnyzAC6L08crXpFSmgTT9oJJ4eo/MwaV1FV8mFPrFMac54NZr5SNIOBILNG4cRWAzpHpUzf5wUfVOOzzHjGws3U0T46i4ni8msEGa1rOqMgGVxkvGipuR6s+Ucz2g6sWxRwKlZyJAYgqB1N2R/wVqaGIXBbc+kMUzBaHzP1BqzBNAGFrxNmPVjtrKzaMLij3GF2wINtr66P8+aiVOx32lUCrQPaa8MVOOb8Nc8/vUcmlyywIbMWRci4XyZXwc2bMDNcVtvaMEqNxTpTOhihUG81j7CPztK+P0hcGxVdqABTCOvkxXiI0Bwor+sZzybqqbA2HheBGFiSsxMGc1t6zlYQUHlVTFgF3ETvAUy+0rpCErbmKx7rWr6+BI2FJ0iuNImrp5nE7LsUSuDHgXmAYYNqXfhgi7J07QGheRoFQIGbuOHzLNst36l9LYjOD2gLFBC9PBNrAAtUm8FCEC5ZpxJeiEJakoCvT8qAYWkYjn/TuSimQNDz66MENfJp6Z80yPdLawXkA3+CPElq0JanKIIgFrVQIBMj8JCD1oZm0u7nGtZ1TeomZigPI/awq2mCaXqXzM1imy4XoTfBCgZpGYg+/gI6N+XKbAurpzDr6T2iiN6ltm6iBC4Z8OumrrVx5q98FFrDaOMqKZs0GK5ZoV2/MQBytPZr45q5nVCEKQG+z5tFAULxe0UKCDQw4YcF/vj0lF0bVZ5+YKzhDwJlIlN+nn0xvwVuqEzcwti4lvIZgaO2I7dcHaP6FRvA7DyqECtXYmF0KBdjeGgM0NzenVDwArDO01Ijllfby2Qpx/k7RVfRGNQl6hcGiOwrxKi3KWvZ9/ZBNRRYm/lPQXjp5lqLvbvz8yGpdxCkdA+0kPTpE8tt9haw5QHZeDyIgCrQUUNsSPpXDDIk0Ru/BSG7qoGuasGT9S+qfZOPJ9fpSZEB2uiGulG3fxwwfRcv6idJfpjhDcFoDzCdRreHEyPasmX9Quwbq/F6uG07v1GTWRNVwQSwFAbfM+l5Wp/kRoyaOZFnsQ9GAkEdydTBKpXhybf3EYacu/SAf6QPLlydUe4RcvdhfpFf6CDp5C6OXW9OPNoN+gS1amkCZYVHE5vpfWWltltfeYLDQB8DVva/JzHBno32hrG/ztHkzij8Sgld7/uwSgqA2+ar2DULjCg/o3imaczerOkTKFwr27wAAAGx/4vqB0TSNEGieC8A3Z1bbT7QbQbRueavWLgaoJcLQFymgbWUUPo7X3YBxqK4fP0R3nnw3ttHWAS1UG1d/g9GYSzu8Oq5tH+5uZIohC0YB6/NTrAWgFrLk0HBsy0Fl9DNRG2bGDClY6dYESqqspNY3L3z5RDmcMfWNa+VTbmBPgF3aTOxzL7PvFxLk5rsTlJffP58pui2mOV10P7lBLb3lO0GIXkslTgA1dkH1QKaq8xltQDzpYVS3SPZGkLXpM00C3HeZ1zL3d+JtqdHJ/wDkrDQfYfNXqIrEaSEP2diu5s8AH20MnewojBhgG8Wt0EzVYCqqStny90pTsUrpJi6Ooy9YaawBiHMLo0IYJnsszMqfIprCk8JdTVqPyXMw1rTWZDwm9DvE0+Y0DW01glZCRx5sCEXSte0Sap5Aby2zfQjaNzsDiIpK0IjRt0iQT8qBy0+cCWFSO860VW81tMkz8AsAqR3ltTy1v8Js96hYxQJzx17SiZgAAFB8E0DBszVNsMWLJaQPUkCcVf8Aso//2gAMAwEAAgADAAAAEPPPPPPPPPPPPPPPPPPPPPPPPPPPPPPPPPPPPPPPPPPPPPPPPPPNPPPPPPPPPPPPPPPPPPPPPPPPPPPPPPPPPPPPPPPPPPPPAPPPPOJPPPPBNOPPPIJGPPPLGIIPPPLAIPPPPPPPPPPPPLMMPPPOKHONPNGEPOPJABPOPPGBCPOPPDNPONPONNNPPPPPLPPKPPtvKHPIAjPJPMNfPJPp0fLPOFefLHOPPHPLDPPPPPPMvPPL7cPPPKLjfPPDHsdPPjXxP/PEv/PPPPPPPPPPPPPPPOEfNaPP5PAX/KXf5zvLDVXf/PkkDxfPPPPPPPPPPPPPPPPPK1sHPPLQOfPPOTE/PPNflPPPP+qPfPPPPPPPPPPPPPPPPPBGYPfOb1h1PO9BcfPKkHavPOW+qfPPPPPPPPPPPPPPPPPPPPPv/PPOKfPJXevPPYP/ALTzxgTy77zzzzzzzzzzzzzzzzzzzylPzyJZ3Lvc71bysd++r/7Tzzzzzzzzzzzzzzzzzzzzzzzzzi4E7zww57zz3yzzzzx0z7zzzzzzzzzzzzzzzzzzzzzzzzzTXf7zy5LfzvOFDzzyniPzzzzzzzzzzzzzzzzzzzzzzzzzw58lfy4yA3z/AMYaV888qc28888888888888888888888888888888888888888888888888888888888888888888888888888888888888888888888888888888888888/8QAKhEBAAECBAQHAQADAAAAAAAAAREAITFBUWEQcYHwIECRobHB0eFgcPH/2gAIAQMBAT8Q/wBgB2JkU6gllsnfwgR5q2W5Y/FGQwpIWe/zwjsY5rFDFc7k8DFiNAIEm499OtEMmb9O/eXhQObyt45f2m4zw7OuBb+a+RtSmdSZx4Bt4jCxcDM30ymkbKSRuM47960sZJmM3lxL1LQmbrY27vOlPBcA0pyzkttTp9+BMcIDBGvtbKammZLX61kbkMzU7vzx4EglaG6cQ0O/flS4SgzE2nWKhGJyPwXvXWkRwMTjjiKA5uQTkfPKlBQSULHp5HJCxNTMrcCMy5fXpamJQ7lSou+XrhWCmAZGh3voFY3Z7mjVhC4u19u45UnAbyR81YseAwHV75GdPRK4AbhgmppTsdNr0fyelOSnX+UL5FMv190GfuFq9/yhawncO1XwNilx6fzrUFwjlf5oNk6Ucj+HNpw8rF4GHhKB2Bw+4/j0rFQN7PzSGGdTrL8lLBZA7x+PJklhaZ7b0sRSa3fVJqAtQt0vUrRYmzPEYuVLKoY5D1aNIQvZv4IYmhoAJVyKlKAkfAUmISblJlkiYc+VBjxsev54IFQZNyr4BNdtQeJ4ESuWpnSqy+TRkwiAwN3vpSATExl7YZfdB0o6fDcKi2yLsROBGkC46b0xgoVAYXtPKo+kbreMpipOFcIbFp9GoekGLr7fHAoPqhL90gygLhc22tViBBid+9JqMvD45/vFtBoHvNykybYWEGtBbTkdh7KGfbIw32+us8WzzFg1327ijIhCMYxa8ZaWqZURLhNqwEq0MIGKWz9aLNEqjiNv3ysmNLRqbNb8ZkQPvUPCOJOdPS0m1tOImUelOxQZa8qjpxNuIoyhhS4nUD5olgNE2AUNWR4tTCWNXvpVyL4OnPgVQjMqdpb+VdmFLVy7mcefGeTDDbfvnRSM3pn25VEP0TOhL9NKUEtR2ISuuxUTZemylc51goOJwZ4q9qzjXHdoAIKQSGpvfGmzQiSU7aChhwMH35oJKHP9o9Sx3+VgK6vf1Qy4rFeMezqFqmWTdqOUHFWCNRjWRa73oiy7m4+CKUlRdo0mrtHvQRbzS4RZYqDG4wvTYDNOfKlZxQ4PWgKulli1DSQkzmulYxKE8FAlq9pJvsa1EWThSdywv4IETKiSsWF0pBTgXdc/Noolc4oJe3q0BnM6wJmDtwNgkpFeNTRE5b0+XGjwAQ4VhY5Y00nlltU1Hqk/7QAUuvEoAgzYKUrJzoCChxkz96Abo/y7/8QAKhEBAAEDAwMEAgIDAQAAAAAAAREAITFBUWEQcfAgQJHBgbGh4WDR8XD/2gAIAQIBAT8Q/wDQIdy0ehvt6be8jTCTI4fTfrDdxSzKegKgrKubGaOKTifr0jRNvRPSD7FDb6N/R8+nY3pG2TZ5rllRq9vRNWtzODzy1G2kMU85w44839A4cG0YWjkTFWDMh9nUFQZoku5+CtXttWgQlHekBwnWYvhadWlQTA5NPYi6CGUcmo0pAinYk/VNVlZduDoWy1cEFlfXnxQ7H7lXe2gwd6Trd6fMI3KRvzo/XjWwnz/VGQB3vRY4P889DqQ1chzGPPJrWjHb+6AW8j9UieV6IpM0BDA0fdZx/m33R8Njz/VOgIOD2YBaPFKtc3KZtYX4/up3k8eiURQ5pKwtz6I1pUDAXWnCWRw+iGjE3Ki2YTQBLLEegVGJuVeDCavpSDWaVtL2cLIhtt3pSJlDBo22RqGCGhydCALFEJAZe21XRQf1zU8RV1sb1EWpz0iqjhSREoZ5mmq90aWPIudWyhdophbUTcovaU1LobK346sYDQ55ppiKUKlAEpHvf1U6Rmjkfa5cKcmTq3Od6ksCYYcPNXBR1eQ35ex52ozbdanD5xU5IwS9us1Qbu1TBt8Jzyf8rIyNCMzalBwOpEGZOUd2n7q2zI3X0876dJMw1MCX2obSEk4ruSiYvp5p1iMaz9OT/lMNFmI/E96l91bOjSgezo0iglrQlwNjd841pe6xtpQjIs9ms3Fh0jz56CNxd+DzgrR8MGxSqlzQqkzUbioG/J5xpSKEhooErS9Zzfrz790jmejp28+KfhuPu37ayXbePspghDgYOszJtCah3PcKcyl6zSnY3KC8L8RShOxgMHoIwkqQvO8X+6cwh2X+aWbvulwU27+6nwtYGT8UG9JsbN/PxQOJBT4ehA5VNs12XxxTpKiQ4AM7Vg8LHaeiKDNByIEkmXapsxLv+rTmmjAtniIdfRM2h4mdOadjgkMy6FqSMTGDbT3YBIF4likNnjSr96w6R581aTJc51jpJuHcoilGlKUiw8befVGQJrpr+IOiISEq9fgylFAYTe+fzVyeghtH8UzGBbG3HVYrMiFbVD0GlISkmEdNtKabcP8ALv/EACwQAQABAwMDBAICAgMBAAAAAAERACExQVFhcYGRECChsTDBUNFA8GDh8YD/2gAIAQEAAT8Q/wDhuaAlCcP/ABoaYiRiGU0dXsUuCAdAspLDhVdqttWCVDVSCCqFhLz+Ff51I5VN1heEDKEEblkMlW3RDaAocpvi29R7JLHBYWNRk/BZqS7hwSgmiSgJEZE9BjWSGkbxw7UOScCF0cL4/BcnnDTPByoc0fHRM+b9U0x9oiGEwmiYelL1nPU4AFgbTNJXBFvso6PZGbAFNlgkxR7lgloNEioKzHCk6rfanOfqFJFJ6lJIWIhhMJomE3PS3HFZG0LLhFQiZ5s8S+6VNyUSkTFxOixN496gK4Kc+NxhLSCTu0kRaM/5pZu7W41nYAOklRcOJ2WwASq7AtCSqUWYYeRGyNz/ACiUrLgEr4KtCaTRgXRZDlGKL7ZAg6vcrnLRs6kg3CWfwzt70Fbm8qmHnYukOOzpHMgnH9h+C7OG9YCSm5B5ac+pVuwdoKFIGBKiehRA6X1ipLC1NuXSX1VGB4zOiGWnTDJTv3kmWKjtB7yPLorIMlkK4by2Gr6XpgAUublopKqKF0CR2sqIWcBZ1RsvMTXFbjvikA3hweJAtcn3ogSJExr7gBHDUrXY1YykFiBirfKQRKzBl7QcVACsRkITZhe/FM0Fud1OhMc1YlyXh1JDD1Kh7IwLqZE7BIvOlMesOXQ5YmAOj7wfAXaAjEjdxBIuiSMVNAwWqOkPumUNCweXk5JOadopC1gcjc70cGbDaTb6/X/Km2QXK7Y5STvRayBxsHcINUWvThzQUnfYk77xSO3VkFZI0h0HSp3AJecSciJ+BFCAhwfQaj/L4CkIZQhO0lGisQMqVCiQHtxl+nn8CDFlfj+6MVu6bT+5Vi4IA/vUdKeAhCO2KiSwXWM6UZbnLyIk5aZAVRBRphaEwJsnvPUl40uwyvBUUTbicgXFgU8XCDynTY2SzSW4Y3B5INbUQScrTULzl5kAZXjMTN70u2ZRmbFs4ZcLRj0m/sElsmchBeSFnSpLSQNeGbpCJAkU0op1DvN4mybw0X6ZRIxE4A1H75UJChIS3hwNLIuxxEmRIBMuYINaFkUJdQLibPeGoXjm1EkfVY9W9DkVgDLsCGJ0UcRSlbECeVOXcaG4AbnEIsjDc6JVhZgQNhBsiMc1I6GW03fv/KN6SZZObKebqtsmKZNFSiFrgsdBUBBYGFJxiBdQvTFaiki9jgWO3rEyZBANgbKSY4oHTFcLjADkS02eI9eetYAieGllhO1DZl3KNU0ap92okJT3/CUEmVm8ptkXj1cKohYlGKOM0lsgiZUkmc8UeoVW1tUA7pHeivSxo0HaBBBNMlFyhXPUYEQeYD5agB6VBl4gTARgLlD5W4SxW4ERO7w+o5lzwBV8FBkuCYgCyuZhnXEY9HFLBUzTlkbFszeZmpKLyNYIDNtSmrsU4DiT5aUv4hyQ4K0SWoHsM2oB0hR2lp4mKEzXrCQHhlsjS9HqiV6QKHXZMzokVEBYGZmj59YJbaaCdBFOLOlJi1BSvKtACs2oOibnFbNhL0UnWpqqUbSljShySkRlku8LHIVd/wAcuviTuUniRB/ZsCV43laAYYbABAer75CKwY3LmbU547WNJOUD39VSZZ3kQElpaMndq4FYj2bynqrRAQ5wbEqBO0daHnpKWOsBPM0bDyJE+i2g9hSLriVSkhyon+8+oCgmtoDC8EzBnioBAUSEACqZiJcesLVNltslGJnM2tUtAtDfOmHxUFQkGTDJi6k4Yo0YCyMZEqsze2KsCXm6xkjfUpIiSTDkoiQwzAQUL3QtrO9DStyAhy1c8ZJsYN2+sJLG+340JCWdKkL/AJgJ8ey/T4Rma7tazl4acsbIblnVeD22n26usOGOk6G7tSyyIxkWZGcFtB0o9mJ/COoxLRCljDAw05NnKyMxchgtikoskAfgPeaAOAQA0AweoxRTNww9CIpS3KNL3A7PwesekT6x6l4GowBloDwRUbuXNF+QUQkhNAgPB6wsgwh3EWO7UEmYBIuwblR6iAHRL5SgAAID1aRHgjRrW2CdpVGQlUIsBe7L3p0ILqsBQxeWJm2IyeJrNNBJoJKmr3mA+vSC5CmO5OKJdcGAbAY9YtzozFFbqEGw0thUiGQjuSOE9TjnHSRUkpcKQ1h/VBFRS9OkhVxt6OhJkSSkraIRMNYeAEDsf4Mx4hdKRYM2UL740CIANvYAQGZx7Ts5e00rwfoOsKl+9EslpAaHmfYZYEIkiUWH1QBLmwR7HlEphIZJZ7EUxgNQHnb6wVNZgroNjm07LQ3VISBwntGSEzMhCIbpukLrQHwloID1EeFgumxq0PGyhLmFt0KWkARoO71Ne3uBAFEI4a5RL4JuOTQ9IB3ysCYKb5ywim4FJL1af550/wBdPNNWjLbSLrk+G9JYBKSERhE3H8AYKnBtiM7xacxVqaFLGUcG7UEMMzYnwPaaOssJBXQ5byT0pmStM5BzmPP4FIsdwQdY4iS1FbUAgBgDQ/gS/hPFCsRkVimoYx2+QZvKSX3KAhgr1gm10es7/hhxgbusAQplzgq24Y4sDMbkxVvOBRANx15oiUcrLARUNlbe0GVuWo0oHrB9zTp4zN0ksY0zOaRCyW6ayiHoYpxDONy6JmNMUwaJZoES1ejWKE2Auj70o4iHpA4T3N6hqxAklEDefqaarmQiIEndss81B6TAYXdaVHr0SS3ZVdVaGKqMmQGR3+lG0HgQ7sbOj752UIn5Np5zVui1RHVL4vHJSNOOGcauvXiaJjoW1BgJwEv8DCHVvks0/wAHK3NpujhdkdPwDPUIND9mfG9J8WdqBB2HdNJ1CWB5BepS1aVJG6ORZNtG0I+4tSqEAGVoTkIXhfCj4OaAnH3ZFcrL6jIzt+6vhjzFMDWC3+5z1Hf3j/fXOwcrasUnTAgPk8PrJiNXbk3Z+GmZmhIZ7jyfD3pmQEiMie09sSj4N3iglWDNtZf9jBze0RYXXK/3HqdA4T4R0TeljQkOQO//AKcCAiCv/YNn3JmIyO88NfFT4PZ5rnjPj+EvBaghx1mvHSjYkRFz+wZ87+5+Aklut3YatSHLQ9s4f0exk+EFc9Th8lEsTsWTRdHZ80gChG4nqGdpgA707cVwZ9CNOGutM8IK5uX26vtKD1A54Ro67N9aF3ALHJP/AEfVGxISIyPsBosrx2N3ioRHAM/B28FNQf178GD2EIMysJg2Oz54lTqMYb7XFzpQ3AWvHrh80KDOpv1XJDiHy1G6sLlzj4mgAaQJFu7vlairZILn6Nj2mCGEcjojom9AkEBSI6WP06VtnapW3HTo+aKJZMn9Kmn53lIDu0RMSSgfB4loZXhHGwt//WhNxi+3dcz/AAgIAohHDTyFXFrphf8ATpWK+Lw6DDyeCivDgidRvQpJD0U4C8ov3WntAXl7/A5qS3cCWzpyxtQ2ZCwD2tRoBJv+zD80Rdti4uPToxSgHOUkezZTlfsP+IPunsc7D25r2FrRRh7nA0fPuBAESEdauiyWSnTPZJxUxILOWj/WShkKFmMfgKIIu9f90piGy0vyNTXFdpDjP4pyocG7Bscffu2jtHwOTtUyaZO3AQneagG4vuAoxuBV9iP3QcnoeaFXyViWWAPeT0YFImyUreXhvdWOyUjFaLeJg+a2wxZSkHNMw/gVon0vB5HL8UQRogAOn8Oj3KWa7ph8UkBTcGdyfqm/PhHSV6wfsg+6uCwIoPGPmaAAEBgPegZcgI9mmz5rA+qVnf0igDH4YqKjv8FEaUH480Whh3aLG0okTcfyDxpxJ/iMZpFPxTNKYUGidErBXeNRsAF2oLL6K/lqQ9rAFpfWcR+AMYEtKcMgmeUMealBm0391NGlqTgTZx7yghKIA3WhaxK5E4fTPSH9EsZw/FW+pLROU5W2zREyLSBwj738UpEVjdrn1dsGSE1a5BF71cRdX4qnsrC5pBe/g+TBwELxJPo4oRfXVdi2+Gd6gV4niBFrpM/HWoCClILCDG7FQyWYmSULrH7/AIYpvy2AqzRiMsBxlxV+TNULBEBxUil4qYcTqRfqVa/EwgUC/wC4piDZNdWYQ5qRKEkzcl+m/uAoSEGaLEwzvRrAkpSbKS25qfIMQgIwibzV9xCjPE47UwGC4p2zSKHNLMCbbo1aYaCBQzEhPtcUb0L0AvTFz29Ay3aPgzigdJXrRTsCASRphpFH4NxMJeHTFaKaJuRbLmkpDIjdATlGfj2rBeno6UTxst07UsHQaRosvakpBDeWmlWPMjQYa0QmTcf2USjANU2w/C0tBL8mPk9yWl2AjIDNPBXsJSwhIS3NNQcsUZMABzz6Oa0Hhl+6JcELg70iuGBdjGrzQyZVuk5h0dh/hnJmDODI808cU5nQQWCe9WvEHyDJh120zR0wvEHgqI/agYxdlmKlGBstu0WUg8wQoDu014ri1eCCTz7GVvT0hnjck70SKRZChYVu7FRMpcAhlYdYO9EyHAs5uquWfQiUmShyTNygZWQ0tpu+1RNCgBCRMGfaXFB2AVIvZvzSKduQF4g2TrT9ACCxhBGIPNRwhkZgxKu930A0+7VEJQJCtIAyQiziX2pJekrqBLpg46zSl5xUEMA5M9OaHZYfeELuPSAJpGyHKjoPakfaZkyCE6v9Vc4UBIoSLHfj3XUYJLffRPMTStYAKWsmqZl5rIYJhAE/HpdYc3wC9I5tR6jBMBd81JJqCASQRu2oi7UJu0aXj+KQqDHI0meHBPkpMuiCQ7wAPeffcYwSPU61J6wBQmLkYdlNHT3czSh0GWnFTGkHMN45oILfge5JWA3WoNhhfc3+KNFJLQdUc/FMWAkTU/FNei0sZVcHNT1ugr2Sx8NQQAHMnLAnGlAmSVkT2BgDBATbZ7jQZIyMy3AAnl/k5ZnooFmDSdZvtR5dkBcQTaNSoQUsQLFgbJ8z6GyQ3Gfblj9RNlmsW805kyKOBUt4OtJzGz7YtP8A01OcZNjA2dSH0Qm8dWb9+0c+5WYRxAWrHnarnPsmQsmFxKCE0b3kMEgyjp5VdeK8kBA53PUnMGmJSBfvQLFRAiSHhO3uBxoPeCbpsspTBUGBznI6OYxSSyqZMToar4p+DAGShZMNpIN/5BrJiSVmFOcHeoMoxARZTzE+PeZIijC0o2sS3sVODBMnQI4ljS1RcaDEjYaplG4Rfvl/io0QakqH0larRknh4oRBGT2NBA9ABKtOKLKzCCe1iY3aI4wgSgietGBRbMS6+jlp8cWZPB5qPup3Wo8jJ7X7mq731XD5xUhpchNM9Bv1ihcPAAezWBNRh6wMiPCRWpAkLOyHSz5KNapCQOE9q4jEJq2Xztz0oY5IHKVvsDeXj+SkYJuE6nJntSEShcS91qdyiz/Kvh2ePbZ2SMufo3adgYRcM9+O7RCywGq6q6rv6uljwl3DdPpakUSX9aF0TE+aIdcjAbiemTsxh0N3gqHsKU2QGnDXWgBhEy5oF+3fp7H9BuzDh6OGnCOqPwsnZpaZzK62GR6+rBIPmp2cvagl0REaDl/9aA2THAe4WgWSxkW/To9aVzBMlxcjXhppWDzpB/7x6tzYg0ruz/t0pGMwcHiNF0wcATIFADAfyZDLEl3blalKHvGYW46Pya0HtrLQnwveKxg2SR7lMTnJAd2s2JI5d1+h5qz3cYTsYj4KMC8ajdXVd/a7efIJvucnzSTLsv3GnzR8zbYHyf3TMi5T2gX7qXtSAnYMDp59waAcWnd1OGlgXIiNkm/Zq81szfIE1ss8M/IY8lGG5+1hHy0Rq4HY/t5/AJAAgd00Bo+ea3C8CHKT91Y4Fs75LqKY4yDFywo80xSjlh/1weaPpgeAGgfyp2NgANP8V4fA4fNLTeQ+DFWp25+k0ju8FAfl3W4oejQBAGx/hRvQRij/AIGOl5iAVP2e4DFn0zCVXLsGV4KRhWxjdbpj54oO6WpEw+49lkBMCWYb3LUfYIxDCSTR8f1yA1VsFOXbATPJr0irCtLaMJ5H3+Kg27xn0lOlRetsH7xXbZALwgtyfhBFEZjCwK/qaGSaCzlN8TgjXVxV7iRcpuFsclFKgc6AE+/5W+2lwxMBUQ2twZMC/dXbOTiuBEQ7b0skgRgBke9Mu2gJrKQLsW0xS9MooSMYCXSplJC/ZI+E9o/LU4QWVWM7NJxblZCEjNtDSmVTQZsFnOmKfyhgyTD/ALNQqx7jBb3IzBQGQCzaT+j2p5NpRSbYYg+Q/FEsOEB5p30Y7FAweFhki7BDcoX1kqAbpCGeUvR5XLCyitWKZGWjyHvSraKVNm6narPKWmDlzS1cYcPJbOOtLiwOdOmZXDeIooEyO40nazzR3QD7B+v5W+D7sYs9KjAAeCNmVjNYKrMVje7JE3LYrETw4dinOGWbYeawTa6gdeudaFzMKmcyOD49rLRapIk5JNOKcZ2xcCJkIltZ61jXqKtlTvNaY9hKoE8XmiegY4xAG2xWjNYF/VSQbM0i6CTogJ19kx5Z0McO83oa67r+oqOqzLe9Uru9pqHrBOFZu5agWOKREWYaW+ahkEhUIjoIKmYLxEjwS0oEkpySKSOzHulnEqxdUlBWlcK6dkQXmaA3eil4KQYAQXiScme1NFAkXLN97t+9ImXMMHq3Km4vUSQDdVJez/MJyAPIHIlFFZy5LwlVjihOwl8TngXV1/Ajvx8gciUqREBy3Vu96Sc/hs7tD6gbVjZE0PhFZ1ybyPDb4o2wIAIA/DC4UAVuSWaYrxI6G0NqaOjKDvYY8ULSMxRLuuV5f/pT/9k=;" vertex="1" parent="1">
                    <mxGeometry x="540" y="90" width="288.89" height="100" as="geometry"/>
                </mxCell>
            </root>
        </mxGraphModel>
    </diagram>
</mxfile>